# File created by Blade
# Date/Time:  Wed Jan 21 18:02:19 2015
# Frame Rate: 120.000 fps
#------------------------------------------------------
:FULLY-SPECIFIED
:DEGREES
257
root 19.706830 36.313650 -26.532725 -227.424439 -20.926385 -156.524862
Spine 53.605857 -23.955521 7.755187
Head -16.518879 -7.288851 8.168185
LeftShoulder 10.452038 -31.597427 -7.005597
LeftArm 1.023900 21.425907 -64.661378
LeftForeArm -6.756351 -0.000000 -0.688074
LeftHand -1.993076 0.000000 1.118008
LeftHandThumb1 -26.253704 0.000000 33.147579
RightShoulder -2.553932 -0.235436 8.833115
RightArm 17.298509 10.258492 53.656834
RightForeArm -30.137727 -0.000000 43.563044
RightHand -10.740707 -0.000000 -15.808498
RightHandThumb1 -24.326973 -0.000000 -32.862282
LeftUpLeg 23.092846 -1.999264 17.684191
LeftLeg 28.329762 -0.000000 -0.000000
LeftFoot -27.193194 4.734051 -8.312609
LeftToeBase 27.644078 -0.000000 -0.000000
RightUpLeg -94.933272 -22.662924 1.086630
RightLeg 7.151266 -0.000000 -0.000000
RightFoot -8.878540 -36.096966 2.973206
RightToeBase -5.308130 -0.000000 0.000000
258
root 19.715391 36.305477 -26.449505 -226.865071 -20.984586 -156.866694
Spine 53.046718 -23.609026 7.691612
Head -16.305111 -7.392632 8.190988
LeftShoulder 10.179933 -31.376789 -6.978329
LeftArm 1.013146 21.462579 -64.889312
LeftForeArm -6.522753 0.000000 -0.586965
LeftHand -2.067089 0.000000 1.077987
LeftHandThumb1 -26.253704 0.000000 33.147579
RightShoulder -2.671624 -0.187069 8.841359
RightArm 17.455853 10.064917 53.874267
RightForeArm -30.635447 -0.000000 44.709602
RightHand -10.806150 -0.000000 -16.245016
RightHandThumb1 -24.326973 -0.000000 -32.862282
LeftUpLeg 22.710436 -1.771701 17.243453
LeftLeg 28.109633 -0.000000 -0.000000
LeftFoot -26.693811 5.262649 -8.206308
LeftToeBase 27.562554 -0.000000 -0.000000
RightUpLeg -93.537949 -22.375692 1.013934
RightLeg 7.265202 -0.000000 -0.000000
RightFoot -8.631305 -36.159297 2.865080
RightToeBase -5.402466 -0.000000 0.000000
259
root 19.733359 36.302530 -26.362148 -226.230254 -20.941868 -157.267886
Spine 52.463988 -23.144583 7.643092
Head -16.154218 -7.509267 8.235083
LeftShoulder 9.856074 -31.156400 -6.905408
LeftArm 0.996226 21.610559 -65.152329
LeftForeArm -6.265620 -0.000000 -0.547828
LeftHand -1.925230 -0.000000 1.144980
LeftHandThumb1 -26.253704 0.000000 33.147579
RightShoulder -2.796482 -0.237503 8.856437
RightArm 17.648867 9.791532 54.123918
RightForeArm -31.015521 -0.000000 45.799083
RightHand -10.802899 -0.000000 -16.628794
RightHandThumb1 -24.326973 -0.000000 -32.862282
LeftUpLeg 22.343477 -1.456188 16.825842
LeftLeg 27.810509 -0.000000 -0.000000
LeftFoot -26.258481 5.794051 -8.241453
LeftToeBase 27.505573 -0.000000 -0.000000
RightUpLeg -92.095549 -21.939868 1.153971
RightLeg 7.261194 -0.000000 -0.000000
RightFoot -8.502736 -36.322113 2.851035
RightToeBase -5.089423 -0.000000 0.000000
260
root 19.744932 36.286258 -26.261838 -225.379228 -21.123208 -157.610498
Spine 51.544789 -22.867294 7.593475
Head -15.970214 -7.622736 8.232961
LeftShoulder 9.498340 -30.910992 -6.861513
LeftArm 0.925514 21.743653 -65.461917
LeftForeArm -5.828464 0.000000 -0.483955
LeftHand -1.845198 0.000000 1.215194
LeftHandThumb1 -26.253704 0.000000 33.147579
RightShoulder -2.931414 -0.387486 8.861004
RightArm 17.802046 9.510285 54.403226
RightForeArm -31.481041 -0.000000 46.861276
RightHand -10.795118 -0.000000 -16.825017
RightHandThumb1 -24.326973 -0.000000 -32.862282
LeftUpLeg 21.619499 -1.339068 16.198842
LeftLeg 27.582600 -0.000000 -0.000000
LeftFoot -25.936911 6.472558 -8.181420
LeftToeBase 27.273963 -0.000000 -0.000000
RightUpLeg -90.936417 -21.728607 1.447734
RightLeg 7.336453 -0.000000 -0.000000
RightFoot -8.463540 -36.377887 3.169977
RightToeBase -4.904876 -0.000000 0.000000
